<?xml version="1.0" encoding="utf-8"?>
<!-- Generator: Adobe Illustrator 16.0.0, SVG Export Plug-In . SVG Version: 6.00 Build 0)  -->
<!DOCTYPE svg PUBLIC "-//W3C//DTD SVG 1.1//EN" "http://www.w3.org/Graphics/SVG/1.1/DTD/svg11.dtd" [
	<!ENTITY ns_flows "http://ns.adobe.com/Flows/1.0/">
	<!ENTITY ns_extend "http://ns.adobe.com/Extensibility/1.0/">
	<!ENTITY ns_ai "http://ns.adobe.com/AdobeIllustrator/10.0/">
	<!ENTITY ns_graphs "http://ns.adobe.com/Graphs/1.0/">
]>
<svg version="1.1" id="Capa_1" xmlns:x="&ns_extend;" xmlns:i="&ns_ai;" xmlns:graph="&ns_graphs;"
	 xmlns="http://www.w3.org/2000/svg" xmlns:xlink="http://www.w3.org/1999/xlink" xmlns:a="http://ns.adobe.com/AdobeSVGViewerExtensions/3.0/"
	 x="0px" y="0px" width="532px" height="255px" viewBox="0 0 532 255" enable-background="new 0 0 532 255" xml:space="preserve">
<path fill-rule="evenodd" clip-rule="evenodd" fill="#FBE9EA" d="M115.8,129.663c2.179-3.935,3.532-6.473,3.532-6.473
	c-6.454,12.243-16.081,24.749-24.835,35.169c-0.916,1.019-1.857,2.046-2.829,3.084c-11.254,11.534-37.411,32.123-37.411,32.123
	c11.247,0.027,20.482-4.637,25.922-8.227c10.271-7.253,26.884-22.363,34.765-48.054c1.519-4.951,2.958-9.641,4.388-14.096
	C118.618,124.627,117.459,126.837,115.8,129.663z"/>
<path fill-rule="evenodd" clip-rule="evenodd" fill="#CCE3F4" d="M120.741,139.063c-9.846,32.094-32.176,48.578-42.013,54.503
	c24.816-1.978,44.342-22.033,46.215-24.016c13.751-15.031,20.616-34.061,27.289-53.098c12.116-34.56,31.039-58.762,31.039-58.762
	C140.096,75.975,133.563,97.27,120.741,139.063z"/>
<path fill-rule="evenodd" clip-rule="evenodd" fill="#D9EBB2" d="M143.881,153.264c-14.97,30.306-38.907,38.842-44.465,40.462
	c5.587,0.514,25.479,1.81,44.957-3.419c5.248-1.464,10.531-3.394,15.633-5.93c0.012-0.008,0.022-0.014,0.034-0.019
	c11.731-5.841,22.491-14.882,29.63-28.749c7.429-15.032,11.568-33.851,14.141-55.572c7.516-63.43,43.486-70.196,43.486-70.196
	C177.791,32.165,160.904,118.805,143.881,153.264z"/>
<path fill="none" stroke="#CCCCCC" stroke-width="1.9266" stroke-miterlimit="3.8637" d="M159.785,31.166h253.743
	c41.301,0,74.78,34.146,74.78,76.268v23.622c0,42.122-33.479,76.269-74.78,76.269H153.103"/>
<path fill-rule="evenodd" clip-rule="evenodd" fill="#0075C9" d="M151.629,81.547c28.102-0.5,24.084,27.162,24.084,27.162h-11.808
	c0.996-9.736-4.896-15.24-11.993-15.24c-7.238,0-15.054,5.461-12.548,15.23h-12.39C126.974,108.699,122.871,82.06,151.629,81.547z"
	/>
<path fill-rule="evenodd" clip-rule="evenodd" fill="#0075C9" d="M128.991,112.771h45.275c3.903,0,12.277,5.748,12.277,11.141
	v31.082c0,4.684-7.025,11.709-11.709,11.709h-46.41c-4.613,0-11.709-7.31-11.709-10.999v-31.934
	C116.715,118.519,125.159,112.771,128.991,112.771z M151.629,127.531c6.813,0,5.393,10.077,5.393,11.922
	c0,4.187,0.922,12.489-5.677,12.489c-6.458,0-5.109-11.283-5.109-12.489C146.235,136.118,144.816,127.531,151.629,127.531z"/>
<path fill-rule="evenodd" clip-rule="evenodd" fill="#003764" d="M246.418,108.783l13.435-0.84c0.292,2.176,0.884,3.834,1.779,4.974
	c1.458,1.845,3.539,2.767,6.245,2.767c2.02,0,3.575-0.474,4.668-1.421c1.093-0.947,1.639-2.044,1.639-3.292
	c0-1.187-0.517-2.248-1.549-3.185c-1.033-0.936-3.443-1.82-7.229-2.653c-6.201-1.395-10.622-3.247-13.264-5.556
	c-2.664-2.309-3.996-5.251-3.996-8.83c0-2.351,0.682-4.571,2.046-6.662c1.364-2.091,3.415-3.734,6.152-4.93
	c2.738-1.196,6.491-1.794,11.26-1.794c5.851,0,10.312,1.09,13.383,3.27c3.07,2.18,4.897,5.647,5.481,10.402l-13.308,0.787
	c-0.354-2.078-1.098-3.589-2.233-4.534c-1.135-0.944-2.701-1.417-4.7-1.417c-1.645,0-2.883,0.349-3.716,1.046
	s-1.25,1.545-1.25,2.544c0,0.729,0.337,1.384,1.011,1.966c0.653,0.604,2.228,1.166,4.725,1.687c6.18,1.332,10.607,2.68,13.28,4.045
	c2.674,1.365,4.619,3.057,5.837,5.078c1.217,2.021,1.825,4.281,1.825,6.781c0,2.938-0.812,5.646-2.435,8.125
	c-1.624,2.479-3.893,4.359-6.806,5.641c-2.914,1.281-6.587,1.922-11.02,1.922c-7.784,0-13.175-1.499-16.172-4.496
	C248.51,117.212,246.813,113.403,246.418,108.783z"/>
<path fill-rule="evenodd" clip-rule="evenodd" fill="#003764" d="M325.541,105.192l12.412,3.745
	c-0.834,3.476-2.147,6.379-3.94,8.711c-1.793,2.331-4.019,4.09-6.677,5.277s-6.04,1.78-10.146,1.78
	c-4.982,0-9.054-0.723-12.212-2.169c-3.157-1.446-5.884-3.99-8.177-7.63c-2.293-3.641-3.439-8.301-3.439-13.981
	c0-7.573,2.017-13.394,6.049-17.461c4.033-4.068,9.739-6.102,17.117-6.102c5.773,0,10.313,1.167,13.615,3.501
	c3.304,2.333,5.758,5.918,7.362,10.753l-12.476,2.764c-0.438-1.387-0.897-2.402-1.377-3.043c-0.793-1.077-1.764-1.904-2.911-2.484
	c-1.147-0.58-2.431-0.87-3.85-0.87c-3.214,0-5.676,1.288-7.388,3.863c-1.293,1.911-1.939,4.911-1.939,9.001
	c0,5.067,0.771,8.54,2.313,10.419c1.542,1.879,3.71,2.819,6.503,2.819c2.71,0,4.758-0.759,6.144-2.277
	C323.91,110.289,324.916,108.084,325.541,105.192z"/>
<path fill-rule="evenodd" clip-rule="evenodd" fill="#003764" d="M367.757,107.367v-9.532h21.88v19.486
	c-4.186,2.857-7.888,4.803-11.105,5.835c-3.217,1.032-7.033,1.549-11.448,1.549c-5.437,0-9.867-0.927-13.293-2.779
	c-3.426-1.854-6.081-4.611-7.966-8.275c-1.884-3.664-2.826-7.87-2.826-12.617c0-4.997,1.03-9.343,3.091-13.038
	c2.062-3.695,5.08-6.5,9.057-8.416c3.103-1.478,7.276-2.217,12.522-2.217c5.06,0,8.843,0.458,11.352,1.375
	c2.509,0.917,4.59,2.338,6.245,4.265c1.655,1.926,2.899,4.369,3.732,7.327l-13.627,2.451c-0.562-1.739-1.515-3.069-2.856-3.991
	c-1.343-0.922-3.055-1.383-5.136-1.383c-3.101,0-5.572,1.077-7.414,3.231c-1.843,2.154-2.764,5.562-2.764,10.224
	c0,4.954,0.931,8.492,2.792,10.615s4.455,3.184,7.782,3.184c1.58,0,3.088-0.228,4.522-0.683s3.078-1.231,4.929-2.328v-4.283H367.757
	z"/>
<path fill-rule="evenodd" clip-rule="evenodd" fill="#003764" d="M427.764,78.13h14.139v27.283c0,2.706-0.422,5.26-1.265,7.664
	c-0.844,2.403-2.166,4.505-3.967,6.306c-1.802,1.8-3.691,3.064-5.67,3.793c-2.749,1.02-6.049,1.529-9.901,1.529
	c-2.229,0-4.66-0.156-7.295-0.468c-2.634-0.312-4.836-0.931-6.606-1.857c-1.77-0.926-3.389-2.242-4.857-3.949
	c-1.468-1.706-2.473-3.465-3.015-5.275c-0.874-2.914-1.312-5.494-1.312-7.742V78.13h14.139v27.933c0,2.497,0.69,4.447,2.072,5.851
	c1.382,1.405,3.298,2.107,5.749,2.107c2.43,0,4.336-0.692,5.717-2.075c1.382-1.383,2.072-3.344,2.072-5.883V78.13z"/>
<path fill-rule="evenodd" clip-rule="evenodd" fill="#0075C9" d="M242.625,163.302c0,1.404,0.297,2.454,0.893,3.149
	c0.595,0.695,1.297,1.043,2.106,1.043c0.816,0,1.51-0.333,2.081-0.997c0.57-0.664,0.856-1.678,0.856-3.04
	c0-1.501-0.291-2.603-0.872-3.305c-0.581-0.701-1.297-1.053-2.148-1.053c-0.83,0-1.523,0.337-2.081,1.012
	C242.903,160.786,242.625,161.85,242.625,163.302z M248.518,168.787v-1.396c-0.697,1.086-1.721,1.629-3.073,1.629
	c-0.875,0-1.681-0.24-2.416-0.723s-1.303-1.155-1.707-2.02c-0.403-0.865-0.605-1.858-0.605-2.98c0-1.096,0.183-2.089,0.548-2.98
	c0.365-0.893,0.913-1.576,1.644-2.051c0.73-0.476,1.547-0.713,2.451-0.713c0.662,0,1.251,0.14,1.768,0.42s0.938,0.646,1.262,1.096
	v-5.459h1.866v15.178H248.518z"/>
<path fill-rule="evenodd" clip-rule="evenodd" fill="#0075C9" d="M254.617,162.236h6.125c-0.083-0.925-0.317-1.618-0.703-2.081
	c-0.592-0.718-1.36-1.077-2.303-1.077c-0.854,0-1.572,0.287-2.154,0.859C255.001,160.511,254.679,161.277,254.617,162.236z
	 M260.722,165.226l1.93,0.255c-0.303,1.121-0.864,1.991-1.684,2.61c-0.819,0.619-1.866,0.929-3.139,0.929
	c-1.604,0-2.876-0.494-3.816-1.482c-0.939-0.988-1.409-2.374-1.409-4.158c0-1.846,0.475-3.278,1.425-4.298s2.183-1.528,3.698-1.528
	c1.466,0,2.665,0.499,3.594,1.498s1.394,2.404,1.394,4.216c0,0.11-0.003,0.276-0.01,0.496h-8.193c0.069,1.206,0.41,2.129,1.023,2.77
	s1.378,0.962,2.294,0.962c0.682,0,1.264-0.181,1.747-0.541C260.058,166.592,260.44,166.017,260.722,165.226z"/>
<path fill-rule="evenodd" clip-rule="evenodd" fill="#0075C9" d="M278.23,162.83v-1.78h6.423v5.624
	c-0.987,0.785-2.004,1.376-3.053,1.772s-2.125,0.595-3.229,0.595c-1.49,0-2.844-0.319-4.062-0.957s-2.137-1.561-2.758-2.768
	s-0.932-2.556-0.932-4.046c0-1.477,0.309-2.854,0.926-4.134c0.618-1.279,1.506-2.229,2.665-2.851
	c1.159-0.62,2.493-0.931,4.005-0.931c1.097,0,2.088,0.178,2.975,0.533s1.581,0.851,2.085,1.485c0.504,0.636,0.887,1.464,1.148,2.485
	l-1.815,0.496c-0.228-0.773-0.51-1.381-0.848-1.822c-0.337-0.442-0.819-0.797-1.446-1.063s-1.323-0.398-2.088-0.398
	c-0.916,0-1.708,0.14-2.377,0.42c-0.668,0.28-1.208,0.648-1.617,1.104c-0.41,0.457-0.729,0.958-0.956,1.505
	c-0.386,0.94-0.579,1.96-0.579,3.06c0,1.355,0.232,2.489,0.698,3.402c0.465,0.913,1.142,1.591,2.03,2.033s1.833,0.664,2.832,0.664
	c0.868,0,1.715-0.169,2.542-0.506s1.454-0.696,1.881-1.079v-2.846H278.23z"/>
<path fill-rule="evenodd" clip-rule="evenodd" fill="#0075C9" d="M288.771,162.236h6.125c-0.082-0.925-0.316-1.618-0.702-2.081
	c-0.592-0.718-1.36-1.077-2.304-1.077c-0.854,0-1.572,0.287-2.153,0.859C289.155,160.511,288.833,161.277,288.771,162.236z
	 M294.876,165.226l1.93,0.255c-0.303,1.121-0.864,1.991-1.683,2.61c-0.819,0.619-1.866,0.929-3.14,0.929
	c-1.604,0-2.876-0.494-3.816-1.482c-0.939-0.988-1.409-2.374-1.409-4.158c0-1.846,0.475-3.278,1.425-4.298s2.183-1.528,3.697-1.528
	c1.467,0,2.665,0.499,3.594,1.498c0.93,0.999,1.395,2.404,1.395,4.216c0,0.11-0.003,0.276-0.011,0.496h-8.192
	c0.069,1.206,0.41,2.129,1.023,2.77c0.612,0.641,1.378,0.962,2.294,0.962c0.683,0,1.265-0.181,1.747-0.541
	C294.212,166.592,294.594,166.017,294.876,165.226z"/>
<path fill-rule="evenodd" clip-rule="evenodd" fill="#0075C9" d="M298.432,165.501l1.844-0.297c0.104,0.739,0.393,1.306,0.866,1.699
	s1.136,0.591,1.986,0.591c0.858,0,1.494-0.175,1.909-0.523c0.415-0.348,0.622-0.757,0.622-1.225c0-0.422-0.186-0.753-0.558-0.994
	c-0.261-0.165-0.896-0.375-1.908-0.631c-1.362-0.344-2.308-0.642-2.835-0.894c-0.527-0.251-0.928-0.599-1.2-1.043
	s-0.408-0.935-0.408-1.472c0-0.489,0.111-0.941,0.336-1.358c0.224-0.417,0.528-0.763,0.914-1.038
	c0.29-0.213,0.685-0.395,1.184-0.542c0.5-0.148,1.036-0.222,1.607-0.222c0.861,0,1.618,0.124,2.27,0.373
	c0.651,0.25,1.132,0.587,1.441,1.013c0.311,0.426,0.524,0.995,0.642,1.709l-1.823,0.254c-0.082-0.573-0.321-1.02-0.717-1.341
	c-0.396-0.321-0.955-0.482-1.678-0.482c-0.854,0-1.463,0.142-1.827,0.425c-0.365,0.282-0.548,0.613-0.548,0.993
	c0,0.241,0.076,0.458,0.228,0.651c0.151,0.2,0.389,0.365,0.712,0.496c0.187,0.069,0.733,0.229,1.642,0.477
	c1.314,0.351,2.233,0.639,2.757,0.862s0.934,0.549,1.231,0.977c0.298,0.427,0.447,0.957,0.447,1.59c0,0.62-0.182,1.204-0.544,1.751
	c-0.362,0.548-0.886,0.972-1.569,1.271c-0.684,0.3-1.457,0.449-2.32,0.449c-1.429,0-2.519-0.296-3.268-0.887
	C299.117,167.541,298.639,166.664,298.432,165.501z"/>
<path fill-rule="evenodd" clip-rule="evenodd" fill="#0075C9" d="M313.82,167.124l0.254,1.646c-0.522,0.11-0.991,0.166-1.403,0.166
	c-0.675,0-1.198-0.107-1.569-0.322c-0.372-0.214-0.634-0.496-0.785-0.846c-0.151-0.349-0.227-1.083-0.227-2.203v-6.338h-1.378
	v-1.441h1.378v-2.722l1.865-1.118v3.84h1.865v1.441h-1.865v6.445c0,0.532,0.032,0.875,0.098,1.027
	c0.065,0.151,0.172,0.272,0.319,0.362c0.147,0.091,0.359,0.136,0.634,0.136C313.212,167.197,313.483,167.173,313.82,167.124z"/>
<path fill-rule="evenodd" clip-rule="evenodd" fill="#0075C9" d="M315.648,168.787v-11.002h1.865v11.002H315.648z M315.648,155.729
	v-2.12h1.865v2.12H315.648z"/>
<path fill-rule="evenodd" clip-rule="evenodd" fill="#0075C9" d="M321.578,163.291c0,1.404,0.308,2.456,0.923,3.154
	c0.616,0.699,1.391,1.049,2.325,1.049c0.927,0,1.698-0.352,2.313-1.054c0.616-0.702,0.924-1.772,0.924-3.211
	c0-1.356-0.31-2.384-0.929-3.082s-1.389-1.048-2.309-1.048c-0.935,0-1.709,0.348-2.325,1.043
	C321.886,160.838,321.578,161.887,321.578,163.291z M319.67,163.286c0-2.032,0.566-3.537,1.698-4.515
	c0.945-0.813,2.098-1.219,3.458-1.219c1.512,0,2.747,0.494,3.706,1.482s1.439,2.354,1.439,4.096c0,1.412-0.213,2.522-0.637,3.332
	c-0.425,0.81-1.043,1.438-1.854,1.886c-0.812,0.447-1.696,0.671-2.655,0.671c-1.539,0-2.783-0.492-3.732-1.477
	C320.145,166.558,319.67,165.139,319.67,163.286z"/>
<path fill-rule="evenodd" clip-rule="evenodd" fill="#0075C9" d="M332.171,168.787v-11.002h1.675v1.563
	c0.807-1.197,1.971-1.796,3.495-1.796c0.661,0,1.27,0.118,1.825,0.356c0.555,0.238,0.97,0.55,1.246,0.937
	c0.275,0.386,0.469,0.845,0.579,1.375c0.068,0.346,0.104,0.949,0.104,1.811v6.756h-1.866v-6.686c0-0.759-0.071-1.326-0.216-1.702
	s-0.401-0.676-0.77-0.899c-0.368-0.225-0.8-0.337-1.296-0.337c-0.791,0-1.475,0.252-2.049,0.756
	c-0.575,0.503-0.862,1.459-0.862,2.866v6.002H332.171z"/>
<path fill-rule="evenodd" clip-rule="evenodd" fill="#0075C9" d="M351.058,163.302c0,1.404,0.298,2.454,0.893,3.149
	s1.297,1.043,2.106,1.043c0.815,0,1.51-0.333,2.08-0.997s0.855-1.678,0.855-3.04c0-1.501-0.29-2.603-0.871-3.305
	c-0.581-0.701-1.297-1.053-2.148-1.053c-0.83,0-1.523,0.337-2.08,1.012S351.058,161.85,351.058,163.302z M356.95,168.787v-1.396
	c-0.696,1.086-1.721,1.629-3.072,1.629c-0.876,0-1.682-0.24-2.416-0.723s-1.304-1.155-1.707-2.02
	c-0.403-0.865-0.604-1.858-0.604-2.98c0-1.096,0.183-2.089,0.548-2.98c0.365-0.893,0.913-1.576,1.644-2.051
	c0.731-0.476,1.548-0.713,2.451-0.713c0.662,0,1.251,0.14,1.769,0.42c0.517,0.28,0.938,0.646,1.262,1.096v-5.459h1.865v15.178
	H356.95z"/>
<path fill-rule="evenodd" clip-rule="evenodd" fill="#0075C9" d="M363.05,162.236h6.126c-0.083-0.925-0.317-1.618-0.703-2.081
	c-0.592-0.718-1.359-1.077-2.303-1.077c-0.854,0-1.572,0.287-2.154,0.859C363.434,160.511,363.111,161.277,363.05,162.236z
	 M369.154,165.226l1.93,0.255c-0.303,1.121-0.863,1.991-1.683,2.61s-1.866,0.929-3.14,0.929c-1.604,0-2.876-0.494-3.816-1.482
	c-0.939-0.988-1.409-2.374-1.409-4.158c0-1.846,0.475-3.278,1.425-4.298s2.183-1.528,3.697-1.528c1.467,0,2.665,0.499,3.594,1.498
	c0.93,0.999,1.395,2.404,1.395,4.216c0,0.11-0.004,0.276-0.01,0.496h-8.193c0.069,1.206,0.41,2.129,1.023,2.77
	s1.378,0.962,2.294,0.962c0.683,0,1.265-0.181,1.747-0.541C368.49,166.592,368.872,166.017,369.154,165.226z"/>
<path fill-rule="evenodd" clip-rule="evenodd" fill="#0075C9" d="M386.515,168.787v-1.637c-0.854,1.246-2.014,1.869-3.479,1.869
	c-0.647,0-1.251-0.124-1.813-0.372c-0.561-0.248-0.978-0.561-1.249-0.937c-0.272-0.375-0.463-0.836-0.573-1.381
	c-0.076-0.365-0.113-0.944-0.113-1.737v-6.808h1.865v6.089c0,0.972,0.037,1.626,0.113,1.964c0.117,0.489,0.365,0.873,0.743,1.152
	c0.379,0.279,0.847,0.419,1.404,0.419s1.08-0.144,1.569-0.429c0.488-0.286,0.834-0.676,1.037-1.169
	c0.203-0.492,0.305-1.207,0.305-2.145v-5.882h1.865v11.002H386.515z"/>
<path fill-rule="evenodd" clip-rule="evenodd" fill="#0075C9" d="M390.389,165.501l1.844-0.297c0.104,0.739,0.393,1.306,0.866,1.699
	s1.136,0.591,1.986,0.591c0.858,0,1.494-0.175,1.909-0.523c0.415-0.348,0.622-0.757,0.622-1.225c0-0.422-0.186-0.753-0.558-0.994
	c-0.26-0.165-0.896-0.375-1.908-0.631c-1.362-0.344-2.307-0.642-2.835-0.894c-0.527-0.251-0.928-0.599-1.2-1.043
	s-0.408-0.935-0.408-1.472c0-0.489,0.111-0.941,0.336-1.358c0.224-0.417,0.528-0.763,0.914-1.038
	c0.29-0.213,0.685-0.395,1.184-0.542c0.5-0.148,1.036-0.222,1.607-0.222c0.861,0,1.618,0.124,2.27,0.373
	c0.651,0.25,1.132,0.587,1.441,1.013c0.311,0.426,0.524,0.995,0.642,1.709l-1.823,0.254c-0.082-0.573-0.321-1.02-0.717-1.341
	c-0.396-0.321-0.955-0.482-1.678-0.482c-0.854,0-1.463,0.142-1.827,0.425c-0.365,0.282-0.548,0.613-0.548,0.993
	c0,0.241,0.076,0.458,0.228,0.651c0.151,0.2,0.389,0.365,0.712,0.496c0.187,0.069,0.733,0.229,1.642,0.477
	c1.314,0.351,2.233,0.639,2.757,0.862s0.934,0.549,1.231,0.977c0.298,0.427,0.447,0.957,0.447,1.59c0,0.62-0.182,1.204-0.544,1.751
	c-0.362,0.548-0.886,0.972-1.569,1.271c-0.684,0.3-1.457,0.449-2.319,0.449c-1.43,0-2.52-0.296-3.269-0.887
	C391.074,167.541,390.596,166.664,390.389,165.501z"/>
<path fill-rule="evenodd" clip-rule="evenodd" fill="#0075C9" d="M408.914,168.787v-1.637c-0.854,1.246-2.014,1.869-3.479,1.869
	c-0.647,0-1.251-0.124-1.812-0.372c-0.562-0.248-0.979-0.561-1.25-0.937c-0.271-0.375-0.463-0.836-0.573-1.381
	c-0.075-0.365-0.113-0.944-0.113-1.737v-6.808h1.865v6.089c0,0.972,0.038,1.626,0.113,1.964c0.117,0.489,0.365,0.873,0.743,1.152
	c0.379,0.279,0.847,0.419,1.404,0.419s1.08-0.144,1.569-0.429c0.488-0.286,0.834-0.676,1.037-1.169
	c0.203-0.492,0.305-1.207,0.305-2.145v-5.882h1.865v11.002H408.914z"/>
<path fill-rule="evenodd" clip-rule="evenodd" fill="#0075C9" d="M420.567,163.275c-0.679,0.274-1.696,0.508-3.054,0.7
	c-0.769,0.109-1.312,0.233-1.63,0.37c-0.318,0.138-0.564,0.338-0.737,0.603c-0.174,0.264-0.26,0.558-0.26,0.88
	c0,0.494,0.188,0.906,0.564,1.235c0.377,0.329,0.928,0.494,1.653,0.494c0.719,0,1.358-0.156,1.918-0.469
	c0.56-0.312,0.972-0.739,1.233-1.281c0.201-0.419,0.301-1.036,0.301-1.853L420.567,163.275z M420.716,167.409
	c-0.693,0.589-1.36,1.004-1.999,1.247c-0.64,0.242-1.326,0.363-2.059,0.363c-1.21,0-2.14-0.294-2.789-0.883
	c-0.65-0.588-0.975-1.34-0.975-2.256c0-0.537,0.122-1.027,0.367-1.471c0.246-0.444,0.567-0.801,0.965-1.069s0.845-0.472,1.343-0.608
	c0.366-0.097,0.919-0.189,1.659-0.279c1.507-0.179,2.616-0.393,3.328-0.641c0.007-0.254,0.011-0.416,0.011-0.484
	c0-0.757-0.177-1.289-0.529-1.6c-0.478-0.419-1.188-0.629-2.128-0.629c-0.879,0-1.527,0.154-1.946,0.463
	c-0.419,0.308-0.729,0.854-0.929,1.636l-1.823-0.255c0.166-0.781,0.439-1.412,0.82-1.893s0.931-0.851,1.651-1.109
	c0.72-0.26,1.554-0.389,2.502-0.389c0.941,0,1.707,0.11,2.295,0.331c0.589,0.222,1.021,0.5,1.298,0.835
	c0.277,0.336,0.471,0.76,0.582,1.271c0.063,0.318,0.093,0.89,0.093,1.714v2.474c0,1.725,0.039,2.818,0.116,3.28
	s0.229,0.905,0.456,1.329h-1.949C420.889,168.395,420.77,167.935,420.716,167.409z"/>
<path fill-rule="evenodd" clip-rule="evenodd" fill="#0075C9" d="M425.311,168.787v-11.002h1.674v1.686
	c0.429-0.781,0.824-1.297,1.188-1.545c0.362-0.249,0.762-0.373,1.197-0.373c0.629,0,1.269,0.196,1.918,0.589l-0.665,1.722
	c-0.452-0.255-0.904-0.382-1.356-0.382c-0.404,0-0.768,0.122-1.09,0.366c-0.322,0.245-0.553,0.585-0.69,1.02
	c-0.206,0.661-0.31,1.385-0.31,2.171v5.749H425.311z"/>
<path fill-rule="evenodd" clip-rule="evenodd" fill="#0075C9" d="M432.412,168.787v-11.002h1.865v11.002H432.412z M432.412,155.729
	v-2.12h1.865v2.12H432.412z"/>
<path fill-rule="evenodd" clip-rule="evenodd" fill="#0075C9" d="M438.341,163.291c0,1.404,0.308,2.456,0.924,3.154
	c0.615,0.699,1.391,1.049,2.324,1.049c0.927,0,1.698-0.352,2.314-1.054c0.615-0.702,0.924-1.772,0.924-3.211
	c0-1.356-0.31-2.384-0.929-3.082s-1.39-1.048-2.31-1.048c-0.934,0-1.709,0.348-2.324,1.043
	C438.648,160.838,438.341,161.887,438.341,163.291z M436.434,163.286c0-2.032,0.565-3.537,1.697-4.515
	c0.945-0.813,2.099-1.219,3.458-1.219c1.512,0,2.747,0.494,3.707,1.482c0.959,0.988,1.438,2.354,1.438,4.096
	c0,1.412-0.212,2.522-0.637,3.332c-0.424,0.81-1.042,1.438-1.854,1.886c-0.811,0.447-1.695,0.671-2.655,0.671
	c-1.539,0-2.783-0.492-3.732-1.477C436.907,166.558,436.434,165.139,436.434,163.286z"/>
<path fill-rule="evenodd" clip-rule="evenodd" fill="#0075C9" d="M448.192,165.501l1.844-0.297c0.104,0.739,0.393,1.306,0.866,1.699
	s1.136,0.591,1.986,0.591c0.857,0,1.494-0.175,1.909-0.523c0.415-0.348,0.622-0.757,0.622-1.225c0-0.422-0.187-0.753-0.559-0.994
	c-0.26-0.165-0.896-0.375-1.907-0.631c-1.362-0.344-2.308-0.642-2.835-0.894c-0.528-0.251-0.928-0.599-1.2-1.043
	s-0.409-0.935-0.409-1.472c0-0.489,0.112-0.941,0.336-1.358c0.225-0.417,0.529-0.763,0.915-1.038
	c0.29-0.213,0.685-0.395,1.184-0.542c0.499-0.148,1.035-0.222,1.607-0.222c0.861,0,1.618,0.124,2.269,0.373
	c0.651,0.25,1.132,0.587,1.442,1.013c0.31,0.426,0.523,0.995,0.641,1.709l-1.822,0.254c-0.083-0.573-0.322-1.02-0.718-1.341
	s-0.955-0.482-1.678-0.482c-0.853,0-1.462,0.142-1.827,0.425c-0.364,0.282-0.547,0.613-0.547,0.993c0,0.241,0.076,0.458,0.228,0.651
	c0.151,0.2,0.389,0.365,0.712,0.496c0.186,0.069,0.733,0.229,1.642,0.477c1.314,0.351,2.232,0.639,2.756,0.862
	s0.935,0.549,1.232,0.977c0.298,0.427,0.447,0.957,0.447,1.59c0,0.62-0.182,1.204-0.544,1.751c-0.363,0.548-0.886,0.972-1.569,1.271
	c-0.684,0.3-1.457,0.449-2.32,0.449c-1.43,0-2.519-0.296-3.268-0.887C448.877,167.541,448.399,166.664,448.192,165.501z"/>
<path fill-rule="evenodd" clip-rule="evenodd" fill="#0075C9" d="M249.254,142.715l1.886-0.17c0.09,0.764,0.298,1.39,0.626,1.879
	s0.836,0.885,1.526,1.187s1.466,0.453,2.328,0.453c0.766,0,1.441-0.114,2.028-0.344c0.586-0.229,1.022-0.543,1.309-0.942
	c0.286-0.398,0.43-0.832,0.43-1.299c0-0.475-0.138-0.889-0.414-1.243c-0.276-0.354-0.732-0.651-1.367-0.894
	c-0.407-0.158-1.308-0.405-2.702-0.74c-1.394-0.335-2.37-0.65-2.928-0.947c-0.723-0.381-1.262-0.853-1.617-1.416
	c-0.354-0.563-0.532-1.193-0.532-1.892c0-0.768,0.217-1.484,0.652-2.151c0.435-0.667,1.07-1.173,1.904-1.519
	c0.835-0.346,1.763-0.519,2.784-0.519c1.125,0,2.117,0.182,2.976,0.544s1.52,0.896,1.982,1.6s0.711,1.502,0.745,2.393l-1.929,0.148
	c-0.104-0.958-0.454-1.681-1.051-2.17c-0.597-0.489-1.479-0.733-2.646-0.733c-1.215,0-2.1,0.222-2.656,0.667
	s-0.833,0.982-0.833,1.61c0,0.545,0.197,0.994,0.59,1.346c0.387,0.353,1.396,0.713,3.029,1.082s2.751,0.691,3.358,0.967
	c0.882,0.406,1.532,0.922,1.953,1.545s0.63,1.341,0.63,2.153c0,0.806-0.231,1.565-0.692,2.277c-0.462,0.713-1.125,1.268-1.99,1.663
	c-0.865,0.396-1.838,0.594-2.919,0.594c-1.371,0-2.52-0.199-3.447-0.6c-0.927-0.399-1.653-1.001-2.181-1.805
	C249.559,144.637,249.281,143.728,249.254,142.715z"/>
<path fill-rule="evenodd" clip-rule="evenodd" fill="#0075C9" d="M263.793,147.59v-11.001h1.865v11.001H263.793z M263.793,134.532
	v-2.119h1.865v2.119H263.793z"/>
<path fill-rule="evenodd" clip-rule="evenodd" fill="#0075C9" d="M267.771,144.305l1.844-0.297c0.104,0.738,0.393,1.305,0.866,1.698
	s1.136,0.591,1.986,0.591c0.857,0,1.494-0.174,1.909-0.522s0.622-0.757,0.622-1.226c0-0.421-0.186-0.752-0.559-0.993
	c-0.26-0.166-0.896-0.376-1.907-0.631c-1.362-0.345-2.308-0.643-2.835-0.894c-0.527-0.252-0.928-0.6-1.2-1.043
	c-0.272-0.444-0.409-0.936-0.409-1.473c0-0.488,0.112-0.941,0.336-1.357c0.225-0.417,0.529-0.763,0.915-1.038
	c0.29-0.214,0.685-0.395,1.184-0.543c0.5-0.147,1.035-0.222,1.607-0.222c0.861,0,1.618,0.125,2.27,0.374
	c0.65,0.249,1.132,0.587,1.441,1.013c0.311,0.426,0.523,0.995,0.642,1.708l-1.823,0.254c-0.083-0.572-0.322-1.02-0.718-1.341
	s-0.954-0.481-1.677-0.481c-0.854,0-1.463,0.142-1.828,0.424c-0.364,0.282-0.547,0.614-0.547,0.993c0,0.241,0.076,0.459,0.228,0.651
	c0.151,0.2,0.389,0.366,0.712,0.497c0.186,0.068,0.733,0.228,1.642,0.476c1.314,0.352,2.233,0.639,2.757,0.862
	c0.522,0.225,0.934,0.55,1.231,0.977s0.447,0.957,0.447,1.591c0,0.619-0.182,1.203-0.544,1.751
	c-0.363,0.547-0.886,0.971-1.569,1.271c-0.684,0.299-1.457,0.449-2.32,0.449c-1.429,0-2.519-0.296-3.268-0.888
	S267.979,145.467,267.771,144.305z"/>
<path fill-rule="evenodd" clip-rule="evenodd" fill="#0075C9" d="M283.16,145.927l0.254,1.646c-0.523,0.11-0.991,0.166-1.404,0.166
	c-0.674,0-1.197-0.107-1.568-0.322c-0.372-0.214-0.634-0.496-0.785-0.845c-0.151-0.35-0.227-1.084-0.227-2.204v-6.337h-1.378v-1.441
	h1.378v-2.722l1.865-1.118v3.84h1.865v1.441h-1.865v6.444c0,0.532,0.032,0.875,0.098,1.027s0.172,0.273,0.319,0.363
	S282.07,146,282.346,146C282.552,146,282.823,145.976,283.16,145.927z"/>
<path fill-rule="evenodd" clip-rule="evenodd" fill="#0075C9" d="M286.388,141.04h6.126c-0.083-0.925-0.317-1.619-0.703-2.081
	c-0.592-0.719-1.359-1.077-2.303-1.077c-0.854,0-1.572,0.286-2.154,0.859S286.449,140.08,286.388,141.04z M292.493,144.028
	l1.929,0.255c-0.303,1.121-0.863,1.991-1.683,2.611c-0.819,0.619-1.866,0.929-3.14,0.929c-1.604,0-2.876-0.494-3.816-1.482
	c-0.939-0.988-1.409-2.375-1.409-4.158c0-1.847,0.475-3.279,1.425-4.298c0.95-1.02,2.183-1.529,3.697-1.529
	c1.467,0,2.665,0.499,3.595,1.498c0.929,0.999,1.394,2.404,1.394,4.217c0,0.11-0.003,0.275-0.01,0.496h-8.193
	c0.069,1.205,0.41,2.128,1.023,2.77c0.613,0.641,1.378,0.961,2.295,0.961c0.682,0,1.264-0.181,1.746-0.541
	C291.828,145.395,292.211,144.819,292.493,144.028z"/>
<path fill-rule="evenodd" clip-rule="evenodd" fill="#0075C9" d="M296.788,147.59v-11.001h1.675v1.554
	c0.345-0.537,0.803-0.97,1.375-1.297c0.571-0.327,1.223-0.49,1.953-0.49c0.813,0,1.479,0.169,2,0.506
	c0.521,0.338,0.888,0.81,1.101,1.415c0.873-1.28,2.01-1.921,3.409-1.921c1.096,0,1.938,0.302,2.526,0.905s0.884,1.532,0.884,2.787
	v7.542h-1.865v-6.923c0-0.745-0.062-1.281-0.183-1.609c-0.121-0.327-0.341-0.591-0.659-0.791s-0.692-0.3-1.122-0.3
	c-0.775,0-1.419,0.257-1.932,0.771c-0.512,0.514-0.769,1.337-0.769,2.468v6.385h-1.865v-7.141c0-0.827-0.151-1.448-0.455-1.862
	c-0.303-0.414-0.799-0.62-1.488-0.62c-0.524,0-1.008,0.138-1.453,0.413c-0.444,0.276-0.767,0.68-0.967,1.211
	c-0.199,0.531-0.3,1.297-0.3,2.297v5.702H296.788z"/>
<path fill-rule="evenodd" clip-rule="evenodd" fill="#0075C9" d="M321.506,142.078c-0.678,0.275-1.696,0.508-3.053,0.7
	c-0.769,0.109-1.313,0.233-1.631,0.37c-0.318,0.138-0.564,0.339-0.737,0.603c-0.173,0.265-0.26,0.558-0.26,0.88
	c0,0.494,0.188,0.906,0.565,1.235s0.928,0.494,1.653,0.494c0.719,0,1.358-0.156,1.918-0.468c0.56-0.313,0.971-0.739,1.233-1.281
	c0.2-0.419,0.301-1.037,0.301-1.854L321.506,142.078z M321.654,146.212c-0.693,0.589-1.359,1.005-1.999,1.247
	s-1.325,0.364-2.059,0.364c-1.209,0-2.14-0.295-2.789-0.883c-0.649-0.589-0.975-1.341-0.975-2.256c0-0.537,0.123-1.028,0.368-1.472
	c0.245-0.444,0.566-0.801,0.964-1.068c0.397-0.269,0.846-0.472,1.344-0.609c0.366-0.097,0.919-0.189,1.658-0.279
	c1.507-0.179,2.617-0.393,3.329-0.64c0.007-0.255,0.01-0.416,0.01-0.485c0-0.756-0.176-1.289-0.529-1.599
	c-0.478-0.42-1.187-0.63-2.128-0.63c-0.878,0-1.527,0.154-1.946,0.463c-0.418,0.309-0.728,0.854-0.929,1.636l-1.822-0.254
	c0.166-0.781,0.439-1.412,0.819-1.894c0.381-0.479,0.932-0.85,1.651-1.109c0.72-0.259,1.555-0.389,2.503-0.389
	c0.941,0,1.706,0.11,2.295,0.332c0.588,0.221,1.021,0.499,1.298,0.835c0.276,0.335,0.471,0.759,0.581,1.271
	c0.063,0.318,0.094,0.89,0.094,1.715v2.474c0,1.725,0.038,2.817,0.115,3.279s0.229,0.905,0.457,1.329h-1.95
	C321.828,147.197,321.708,146.738,321.654,146.212z"/>
<path fill-rule="evenodd" clip-rule="evenodd" fill="#0075C9" d="M343.19,142.268l2.014,0.507c-0.42,1.648-1.177,2.905-2.269,3.771
	c-1.092,0.865-2.427,1.298-4.005,1.298c-1.634,0-2.962-0.332-3.985-0.998s-1.802-1.63-2.336-2.892
	c-0.534-1.263-0.801-2.618-0.801-4.066c0-1.58,0.302-2.958,0.904-4.134c0.604-1.176,1.462-2.069,2.574-2.68
	c1.113-0.61,2.339-0.916,3.677-0.916c1.516,0,2.791,0.387,3.825,1.159s1.754,1.858,2.161,3.259l-1.972,0.466
	c-0.351-1.104-0.86-1.908-1.529-2.411c-0.668-0.504-1.508-0.756-2.521-0.756c-1.165,0-2.138,0.279-2.92,0.839
	c-0.781,0.559-1.331,1.309-1.647,2.25c-0.317,0.942-0.476,1.913-0.476,2.913c0,1.29,0.188,2.416,0.563,3.379
	c0.374,0.962,0.957,1.682,1.748,2.157s1.647,0.714,2.569,0.714c1.12,0,2.069-0.324,2.847-0.973S342.916,143.544,343.19,142.268z"/>
<path fill-rule="evenodd" clip-rule="evenodd" fill="#0075C9" d="M348.865,141.04h6.126c-0.083-0.925-0.317-1.619-0.703-2.081
	c-0.592-0.719-1.359-1.077-2.304-1.077c-0.854,0-1.571,0.286-2.153,0.859S348.928,140.08,348.865,141.04z M354.971,144.028
	l1.929,0.255c-0.303,1.121-0.863,1.991-1.683,2.611c-0.819,0.619-1.866,0.929-3.14,0.929c-1.604,0-2.876-0.494-3.815-1.482
	c-0.94-0.988-1.41-2.375-1.41-4.158c0-1.847,0.475-3.279,1.425-4.298c0.95-1.02,2.183-1.529,3.697-1.529
	c1.467,0,2.665,0.499,3.595,1.498c0.929,0.999,1.394,2.404,1.394,4.217c0,0.11-0.003,0.275-0.01,0.496h-8.193
	c0.069,1.205,0.41,2.128,1.023,2.77c0.613,0.641,1.378,0.961,2.294,0.961c0.683,0,1.265-0.181,1.747-0.541
	C354.306,145.395,354.688,144.819,354.971,144.028z"/>
<path fill-rule="evenodd" clip-rule="evenodd" fill="#0075C9" d="M359.268,147.59v-11.001h1.675v1.563
	c0.806-1.197,1.972-1.796,3.495-1.796c0.662,0,1.27,0.119,1.825,0.356c0.555,0.238,0.97,0.55,1.246,0.937
	c0.275,0.386,0.469,0.845,0.579,1.376c0.068,0.345,0.104,0.948,0.104,1.811v6.755h-1.865v-6.685c0-0.759-0.072-1.326-0.217-1.702
	s-0.401-0.676-0.77-0.9s-0.8-0.336-1.296-0.336c-0.791,0-1.475,0.251-2.049,0.755c-0.575,0.503-0.862,1.459-0.862,2.866v6.002
	H359.268z"/>
<path fill-rule="evenodd" clip-rule="evenodd" fill="#0075C9" d="M375.117,145.927l0.254,1.646c-0.522,0.11-0.99,0.166-1.403,0.166
	c-0.675,0-1.197-0.107-1.569-0.322c-0.371-0.214-0.633-0.496-0.784-0.845c-0.151-0.35-0.228-1.084-0.228-2.204v-6.337h-1.378v-1.441
	h1.378v-2.722l1.865-1.118v3.84h1.865v1.441h-1.865v6.444c0,0.532,0.032,0.875,0.098,1.027s0.172,0.273,0.319,0.363
	c0.148,0.09,0.359,0.135,0.634,0.135C374.509,146,374.78,145.976,375.117,145.927z"/>
<path fill-rule="evenodd" clip-rule="evenodd" fill="#0075C9" d="M376.925,147.59v-11.001h1.675v1.685
	c0.429-0.781,0.824-1.296,1.187-1.545c0.363-0.249,0.763-0.373,1.198-0.373c0.629,0,1.268,0.196,1.918,0.589l-0.665,1.722
	c-0.453-0.254-0.905-0.382-1.357-0.382c-0.404,0-0.768,0.122-1.09,0.367c-0.322,0.244-0.552,0.584-0.689,1.019
	c-0.207,0.661-0.311,1.386-0.311,2.171v5.749H376.925z"/>
<path fill-rule="evenodd" clip-rule="evenodd" fill="#0075C9" d="M391.064,142.078c-0.679,0.275-1.696,0.508-3.054,0.7
	c-0.769,0.109-1.312,0.233-1.63,0.37c-0.318,0.138-0.564,0.339-0.738,0.603c-0.173,0.265-0.259,0.558-0.259,0.88
	c0,0.494,0.188,0.906,0.564,1.235c0.377,0.329,0.928,0.494,1.653,0.494c0.719,0,1.358-0.156,1.918-0.468
	c0.56-0.313,0.971-0.739,1.233-1.281c0.2-0.419,0.301-1.037,0.301-1.854L391.064,142.078z M391.213,146.212
	c-0.693,0.589-1.36,1.005-2,1.247c-0.639,0.242-1.325,0.364-2.058,0.364c-1.21,0-2.14-0.295-2.79-0.883
	c-0.649-0.589-0.975-1.341-0.975-2.256c0-0.537,0.123-1.028,0.368-1.472c0.246-0.444,0.567-0.801,0.965-1.068
	c0.397-0.269,0.845-0.472,1.343-0.609c0.366-0.097,0.919-0.189,1.659-0.279c1.507-0.179,2.616-0.393,3.328-0.64
	c0.007-0.255,0.011-0.416,0.011-0.485c0-0.756-0.177-1.289-0.529-1.599c-0.478-0.42-1.188-0.63-2.128-0.63
	c-0.879,0-1.527,0.154-1.946,0.463s-0.729,0.854-0.929,1.636l-1.823-0.254c0.166-0.781,0.439-1.412,0.82-1.894
	c0.381-0.479,0.931-0.85,1.651-1.109c0.72-0.259,1.554-0.389,2.502-0.389c0.941,0,1.706,0.11,2.295,0.332
	c0.589,0.221,1.021,0.499,1.298,0.835c0.277,0.335,0.471,0.759,0.582,1.271c0.063,0.318,0.093,0.89,0.093,1.715v2.474
	c0,1.725,0.039,2.817,0.116,3.279c0.076,0.462,0.229,0.905,0.457,1.329h-1.951C391.386,147.197,391.266,146.738,391.213,146.212z"/>
<rect x="395.786" y="132.413" fill-rule="evenodd" clip-rule="evenodd" fill="#0075C9" width="1.865" height="15.177"/>
<path fill-rule="evenodd" clip-rule="evenodd" fill="#0075C9" d="M400.549,147.59v-11.001h1.865v11.001H400.549z M400.549,134.532
	v-2.119h1.865v2.119H400.549z"/>
<path fill-rule="evenodd" clip-rule="evenodd" fill="#0075C9" d="M404.284,147.59v-1.518l6.964-8.042
	c-0.788,0.042-1.484,0.063-2.087,0.063h-4.453v-1.505h8.966v1.225l-5.963,6.976l-1.142,1.296c0.836-0.071,1.621-0.106,2.354-0.106
	h5.091v1.611H404.284z"/>
<path fill-rule="evenodd" clip-rule="evenodd" fill="#0075C9" d="M422.904,142.078c-0.679,0.275-1.696,0.508-3.053,0.7
	c-0.769,0.109-1.313,0.233-1.631,0.37c-0.318,0.138-0.564,0.339-0.737,0.603c-0.173,0.265-0.26,0.558-0.26,0.88
	c0,0.494,0.188,0.906,0.565,1.235s0.928,0.494,1.653,0.494c0.719,0,1.357-0.156,1.917-0.468c0.561-0.313,0.972-0.739,1.234-1.281
	c0.2-0.419,0.301-1.037,0.301-1.854L422.904,142.078z M423.053,146.212c-0.693,0.589-1.359,1.005-1.999,1.247
	s-1.325,0.364-2.059,0.364c-1.21,0-2.14-0.295-2.789-0.883c-0.649-0.589-0.975-1.341-0.975-2.256c0-0.537,0.122-1.028,0.368-1.472
	c0.245-0.444,0.566-0.801,0.964-1.068c0.397-0.269,0.846-0.472,1.343-0.609c0.367-0.097,0.92-0.189,1.659-0.279
	c1.507-0.179,2.616-0.393,3.329-0.64c0.007-0.255,0.01-0.416,0.01-0.485c0-0.756-0.176-1.289-0.529-1.599
	c-0.478-0.42-1.187-0.63-2.128-0.63c-0.879,0-1.527,0.154-1.946,0.463c-0.418,0.309-0.728,0.854-0.929,1.636l-1.823-0.254
	c0.166-0.781,0.439-1.412,0.82-1.894c0.381-0.479,0.932-0.85,1.651-1.109c0.72-0.259,1.555-0.389,2.503-0.389
	c0.941,0,1.706,0.11,2.295,0.332c0.588,0.221,1.021,0.499,1.298,0.835c0.276,0.335,0.471,0.759,0.581,1.271
	c0.063,0.318,0.094,0.89,0.094,1.715v2.474c0,1.725,0.038,2.817,0.115,3.279s0.229,0.905,0.457,1.329h-1.95
	C423.227,147.197,423.106,146.738,423.053,146.212z"/>
<path fill-rule="evenodd" clip-rule="evenodd" fill="#0075C9" d="M428.877,142.105c0,1.403,0.297,2.453,0.893,3.148
	c0.595,0.695,1.297,1.043,2.105,1.043c0.816,0,1.51-0.332,2.081-0.996c0.57-0.664,0.855-1.678,0.855-3.041
	c0-1.501-0.29-2.602-0.871-3.304s-1.297-1.054-2.148-1.054c-0.83,0-1.523,0.338-2.08,1.012
	C429.155,139.589,428.877,140.652,428.877,142.105z M434.77,147.59v-1.396c-0.697,1.087-1.721,1.63-3.072,1.63
	c-0.876,0-1.682-0.241-2.416-0.724s-1.304-1.155-1.707-2.02s-0.605-1.857-0.605-2.98c0-1.096,0.184-2.089,0.549-2.98
	s0.913-1.575,1.644-2.051c0.731-0.476,1.548-0.713,2.451-0.713c0.662,0,1.251,0.141,1.769,0.421c0.517,0.28,0.938,0.646,1.262,1.096
	v-5.459h1.865v15.177H434.77z"/>
<path fill-rule="evenodd" clip-rule="evenodd" fill="#0075C9" d="M440.678,142.095c0,1.404,0.309,2.455,0.924,3.154
	c0.616,0.698,1.391,1.048,2.324,1.048c0.928,0,1.699-0.352,2.314-1.053c0.616-0.702,0.924-1.773,0.924-3.212
	c0-1.355-0.31-2.383-0.929-3.081c-0.619-0.699-1.389-1.049-2.31-1.049c-0.934,0-1.708,0.348-2.324,1.043
	C440.986,139.641,440.678,140.69,440.678,142.095z M438.771,142.089c0-2.031,0.565-3.536,1.698-4.515
	c0.945-0.813,2.098-1.219,3.457-1.219c1.512,0,2.748,0.494,3.707,1.482s1.438,2.354,1.438,4.097c0,1.411-0.212,2.522-0.636,3.331
	c-0.425,0.81-1.043,1.438-1.854,1.886c-0.812,0.447-1.696,0.672-2.656,0.672c-1.539,0-2.783-0.493-3.731-1.478
	C439.245,145.36,438.771,143.941,438.771,142.089z"/>
<polygon fill-rule="evenodd" clip-rule="evenodd" fill="#0075C9" points="326.296,155.959 327.721,153.125 330.539,152.969 
	328.034,156.115 "/>
<path fill="#FFFFFF" d="M238.342,29.079"/>
<path fill="none" stroke="#CCCCCC" stroke-width="2" stroke-miterlimit="3.8637" d="M238.342,29.079"/>
<path fill-rule="evenodd" clip-rule="evenodd" fill="#003764" d="M91.57,152.691c0.88-0.939,1.776-1.919,2.668-2.909
	c3.416-4.068,6.524-7.938,9.35-11.637c-2.489-5.877-3.871-12.337-3.871-19.123c0-27.151,22.007-49.157,49.163-49.157
	c0.123,0,0.243,0.005,0.365,0.005c8.67-8.896,20.333-16.54,37.128-23.649l0.792-0.338l2.715-7.462l-20.603-7.5l-4.955,13.618
	c-1.478-0.311-2.971-0.562-4.481-0.778V29.26h-21.927v14.501c-1.507,0.216-3.003,0.467-4.48,0.778l-4.956-13.618l-20.602,7.5
	l4.957,13.619c-1.339,0.722-2.646,1.486-3.932,2.283l-9.327-11.109L82.782,57.305l9.331,11.113c-1.007,1.138-1.975,2.3-2.913,3.489
	l-12.576-7.26l-10.962,18.99l12.56,7.251c-0.561,1.399-1.08,2.825-1.558,4.271l-14.28-2.52l-3.807,21.59l14.303,2.521
	c-0.024,0.756-0.058,1.507-0.058,2.272c0,0.762,0.033,1.512,0.058,2.262l-14.303,2.526l3.807,21.59l14.28-2.514
	c0.478,1.441,0.997,2.864,1.554,4.265l-12.556,7.258l8.227,14.244C80.441,163.112,87.191,157.176,91.57,152.691z"/>
<path fill-rule="evenodd" clip-rule="evenodd" fill="#003764" d="M224.94,119.021c0-0.763-0.035-1.513-0.053-2.269l14.299-2.522
	l-3.811-21.589l-14.273,2.519c-0.479-1.445-1-2.87-1.561-4.27l12.558-7.252l-9.875-17.105c-3.08,8.515-5.29,18.22-6.562,28.944
	c-2.985,25.212-7.726,43.729-14.912,58.271l-0.046,0.089c-7.12,13.831-18.13,24.533-32.723,31.798l-2.742,1.366l-0.064-0.031
	c-4.419,2.004-9.166,3.718-14.149,5.105l-0.055,0.015c-4.4,1.181-8.807,2.04-13.055,2.664v14.031h21.927V194.28
	c1.51-0.215,3.003-0.467,4.48-0.776l4.955,13.616l20.599-7.5l-4.949-13.611c1.339-0.722,2.642-1.494,3.931-2.289l9.325,11.113
	l16.791-14.101l-9.324-11.11c1.003-1.13,1.976-2.297,2.912-3.488l12.574,7.259l10.96-18.982l-12.556-7.249
	c0.561-1.409,1.082-2.833,1.561-4.272l14.273,2.513l3.808-21.589l-14.295-2.526C224.906,120.535,224.94,119.785,224.94,119.021z"/>
<path fill-rule="evenodd" clip-rule="evenodd" fill="#003764" d="M116.331,196.294c-2.696,0-5.119-0.07-7.182-0.164l-1.272,3.49
	l20.604,7.5l4.257-11.706c-6.229,0.676-11.91,0.88-16.406,0.88H116.331z"/>
</svg>
